<svg xmlns="http://www.w3.org/2000/svg" viewBox="0 0 158.95 54.45"><defs><style>.cls-1{fill:#fc0017;}.cls-2{fill:#ff7e00;}.cls-3{fill:#ffc500;}.cls-4{fill:#8a8a8c;}</style></defs><title>at-logo</title><g id="Capa_2" data-name="Capa 2"><g id="Capa_1-2" data-name="Capa 1"><path class="cls-1" d="M40,2.55A12.68,12.68,0,0,0,27.41,15.32a12.6,12.6,0,1,0,25.19,0A12.69,12.69,0,0,0,40,2.55Zm0,18.9a6.13,6.13,0,1,1,6-6.13A6.08,6.08,0,0,1,40,21.45Z"/><path class="cls-2" d="M63.45,0C59.9,0,48.68,11.38,48.68,15S59.9,30,63.45,30,78.21,18.58,78.21,15,67,0,63.45,0Zm0,21.88c-1.62,0-6.7-5.16-6.7-6.79s5.08-6.8,6.7-6.8,6.7,5.16,6.7,6.8S65.06,21.88,63.45,21.88Z"/><path class="cls-3" d="M75.18,2.66V27.2h24.2V2.66ZM93.13,20.83H81.43V9h11.7Z"/><path class="cls-4" d="M12,52.49A6.8,6.8,0,0,1,6.8,54.38c-3.54,0-6.8-1.79-6.8-5.44s3.16-4.75,6.87-5.08c2.8-.26,4.79-.58,4.79-2,0-.88-1.15-1.6-3.07-1.6-1.52,0-3.28.69-3.67,2.12H.62C1,39.24,4.1,36.86,8.5,36.86c6.8,0,7.32,4.4,7.32,5.74v8.72a10.11,10.11,0,0,0,.49,2.73H12.37A6.25,6.25,0,0,1,12,52.49M11.82,46a9.75,9.75,0,0,1-4.07,1.07c-2.12.23-3.42.69-3.42,1.93,0,.94,1.11,1.59,2.83,1.59,2.57,0,4.66-.88,4.66-3Z"/><path class="cls-4" d="M27.58,54c-4.92.52-7.52-2.44-7.52-7V41.1H18V37.29h2V33h4.3v4.27h3V41.1h-3V47c0,2.35,1.07,3.23,3.22,3.1Z"/><path class="cls-4" d="M44.9,52.49a7.67,7.67,0,0,1-5.54,2c-4.23,0-7.22-1.86-7.78-5.28h1.21c.58,2.7,3,4.14,6.54,4.14A6.58,6.58,0,0,0,44,51.65a3,3,0,0,0,.81-2.32c-.06-2-1.72-3.09-5.82-3.68-2.9-.42-6.48-.91-6.55-4.23,0-2.28,2.15-4.56,6.35-4.56,3.71,0,6.15,1.66,6.87,4.69H44.44c-.68-2.24-2.6-3.55-5.6-3.55s-5.17,1.47-5.14,3.42,1.79,2.54,5.5,3.06c3.49.52,6.71,1.44,6.87,4.82a4.43,4.43,0,0,1-1.17,3.19"/><path class="cls-4" d="M50.89,34.88H49.68v-3h1.21Zm0,19.17H49.68V37.29h1.21Z"/><path class="cls-4" d="M67.75,52.49a7.65,7.65,0,0,1-5.53,2c-4.23,0-7.23-1.86-7.78-5.28h1.2c.59,2.7,3,4.14,6.55,4.14a6.56,6.56,0,0,0,4.68-1.66,3,3,0,0,0,.82-2.32c-.07-2-1.73-3.09-5.83-3.68-2.9-.42-6.48-.91-6.55-4.23,0-2.28,2.15-4.56,6.36-4.56,3.71,0,6.15,1.66,6.86,4.69H67.3C66.61,39.31,64.69,38,61.7,38s-5.18,1.47-5.15,3.42,1.79,2.54,5.51,3.06c3.48.52,6.7,1.44,6.86,4.82a4.35,4.35,0,0,1-1.17,3.19"/><path class="cls-4" d="M73.81,48.26c0,2.86,1.33,4.82,4.52,4.69v1.1c-3.61.33-5.73-2-5.73-5.79V38.49H70.32v-1.2H72.6V33.71h1.21v3.58h4.52v1.2H73.81Z"/><path class="cls-4" d="M80.71,45.65a7.38,7.38,0,0,0,7.36,7.59,6.37,6.37,0,0,0,6.54-4.39h1.27a7.62,7.62,0,0,1-7.81,5.6,8.8,8.8,0,0,1-.19-17.59c5,0,8.43,4.56,8.36,8.79Zm14.23-1.2a7.35,7.35,0,0,0-7.06-6.35,7.27,7.27,0,0,0-7,6.35Z"/><path class="cls-4" d="M123.72,54.05h-1.2V43.25a5.17,5.17,0,0,0-10.33,0v10.8H111V43.25a5.16,5.16,0,0,0-10.32,0v10.8H99.46V37.29h1.21v2.28a5.89,5.89,0,0,1,5.14-2.71,6.15,6.15,0,0,1,5.86,3.71,5.86,5.86,0,0,1,5.67-3.71,6.18,6.18,0,0,1,6.38,6.39Z"/><path class="cls-4" d="M140.68,54.05a5.64,5.64,0,0,1-.46-2.44v-.32c-1.33,1.89-3.9,3.06-7.22,3.06-2.93,0-6.09-1.47-6.09-4.69,0-3.81,3.55-4.69,7.13-5s6.18-.75,6.18-2.8c0-3.1-2.92-3.81-5.4-3.81-3.06,0-5.08,1.27-5.79,3.55h-1.24c.75-3,3.25-4.73,7-4.73,4.2,0,6.61,1.83,6.61,5v9.47a8.84,8.84,0,0,0,.49,2.73Zm-.46-9.93c-1.3,1.21-3.74,1.44-6.05,1.63-4.3.43-6,1.57-6,3.88,0,2.76,3.13,3.51,4.79,3.51,3.61,0,7.22-1.62,7.22-5.17Z"/><path class="cls-4" d="M157.77,52.49a7.65,7.65,0,0,1-5.53,2c-4.23,0-7.23-1.86-7.78-5.28h1.2c.59,2.7,3,4.14,6.55,4.14a6.56,6.56,0,0,0,4.68-1.66,3,3,0,0,0,.82-2.32c-.07-2-1.73-3.09-5.83-3.68-2.9-.42-6.48-.91-6.54-4.23,0-2.28,2.14-4.56,6.34-4.56,3.71,0,6.16,1.66,6.87,4.69h-1.23c-.69-2.24-2.61-3.55-5.6-3.55s-5.18,1.47-5.15,3.42,1.79,2.54,5.51,3.06c3.48.52,6.7,1.44,6.87,4.82a4.4,4.4,0,0,1-1.18,3.19"/></g></g></svg>